<?xml version="1.0" encoding="utf-8"?>
<!-- Generator: Adobe Illustrator 22.1.0, SVG Export Plug-In . SVG Version: 6.00 Build 0)  -->
<svg version="1.1" id="Warstwa_1" xmlns="http://www.w3.org/2000/svg" xmlns:xlink="http://www.w3.org/1999/xlink" x="0px" y="0px"
	 viewBox="0 0 93.7 94.6" style="enable-background:new 0 0 93.7 94.6;" xml:space="preserve">
<style type="text/css">
	.st0{clip-path:url(#SVGID_2_);fill:#FFFFFF;}
</style>
<g>
	<defs>
		<rect id="SVGID_1_" y="0" width="93.7" height="94.6"/>
	</defs>
	<clipPath id="SVGID_2_">
		<use xlink:href="#SVGID_1_"  style="overflow:visible;"/>
	</clipPath>
	<path class="st0" d="M7.8,16.7c2.2-2.4,5.3-3.8,8.6-3.8c2.9,0,5.6,1.1,7.8,3l5,4.5c2.3,2.1,3.6,4.9,3.8,8c0.2,3.1-0.9,6-3,8.3
		L27,39.9c0,0,0,0,0,0c-1.4,1.6-3.2,2.7-5.2,3.3l-0.9,0.3c-0.6,0.2-1,0.6-1.3,1.1c-0.2,0.5-0.2,1.2,0,1.7l0.4,0.8
		c6.5,13.1,17.6,23.3,31.2,28.7l0.8,0.3c0.5,0.2,1.1,0.2,1.6,0c0.5-0.2,0.9-0.7,1.1-1.2l0.3-0.8c0.5-1.5,1.3-2.9,2.4-4.1l3-3.3
		c2.2-2.4,5.3-3.8,8.6-3.8c2.9,0,5.6,1.1,7.7,3l5,4.5c4.7,4.3,5.1,11.6,0.8,16.3l-3,3.3c-0.8,0.9-1.8,1.7-2.9,2.3
		c-2.8,1.7-6.5,2.5-10.4,2.1C33.6,91.6,6.5,67.1,0.4,35c-1.3-6.7,1.1-11.7,3.1-13.4c0.1-0.1,0.1-0.1,0.2-0.2l0.1-0.2
		c0.1-0.1,0.1-0.1,0.2-0.2c0.3-0.4,0.6-0.8,0.9-1.2L7.8,16.7z"/>
	<path class="st0" d="M91.6,47.7c-1.2,0-2.2-1-2.2-2.2c0-22.7-18.5-41.2-41.2-41.2c-1.2,0-2.2-1-2.2-2.2C46,1,47,0,48.2,0
		c25.1,0,45.5,20.4,45.5,45.5C93.7,46.7,92.7,47.7,91.6,47.7"/>
	<path class="st0" d="M76.1,48.2c-1.2,0-2.2-1-2.2-2.2c0-14.5-11.8-26.2-26.2-26.2c-1.2,0-2.2-1-2.2-2.2c0-1.2,1-2.2,2.2-2.2
		c16.8,0,30.5,13.7,30.5,30.5C78.2,47.2,77.3,48.2,76.1,48.2"/>
</g>
</svg>
